<svg width="80" height="80" viewBox="0 0 80 80" fill="none" xmlns="http://www.w3.org/2000/svg">
<g id="Group">
<g id="Group_2">
<path id="Vector" d="M79.8394 72.0041L67.2947 31.8237C66.901 30.2861 65.7745 28.9641 64.1243 28.0963C62.4723 27.2298 60.4968 26.9275 58.5555 27.2366L57.5815 27.3925L52.944 17.5986C53.9642 15.9688 54.5514 14.1424 54.5514 12.2034C54.5514 5.4739 47.6405 0 39.1445 0C30.6484 0 23.7375 5.4739 23.7375 12.2034C23.7375 14.1424 24.3264 15.9702 25.3449 17.5986L20.7913 27.2176C18.9339 26.9641 17.044 27.2651 15.4571 28.0949C13.8068 28.9627 12.6821 30.2847 12.3004 31.7763L0.149421 72.061C-0.242601 73.5986 0.142573 75.1634 1.23647 76.4719C2.33036 77.779 4.00116 78.6698 5.94073 78.9831L11.5437 79.8834C12.0402 79.962 12.5349 80 13.0228 80C16.4722 80 19.5673 78.0814 20.2692 75.341L32.4236 35.059C33.2367 31.8861 30.6398 28.781 26.634 28.1369L24.2014 27.7464L27.7005 20.3539C27.7467 20.3946 27.7998 20.4298 27.8477 20.4705C28.125 20.7092 28.4144 20.9369 28.7157 21.1566C28.7978 21.2163 28.8783 21.2759 28.9622 21.3342C29.2874 21.562 29.6247 21.7776 29.9739 21.9837C30.0389 22.0217 30.104 22.0624 30.169 22.1003C30.5525 22.3186 30.948 22.522 31.3554 22.7132C31.3948 22.7322 31.4324 22.7512 31.4735 22.7702C31.9135 22.9708 32.3654 23.1553 32.8293 23.322C32.8447 23.3275 32.8584 23.3329 32.8721 23.3383C33.8308 23.6786 34.8391 23.9471 35.8902 24.1275C35.8987 24.1288 35.9073 24.1315 35.9158 24.1329C36.402 24.2156 36.8968 24.278 37.4 24.3241C37.4411 24.3281 37.4822 24.3349 37.5233 24.339C38.0574 24.3824 38.5984 24.4068 39.1479 24.4068C39.6974 24.4068 40.2383 24.3824 40.7725 24.3376C40.8135 24.3336 40.8546 24.3268 40.8957 24.3227C41.3973 24.278 41.8937 24.2142 42.3799 24.1315C42.3885 24.1302 42.397 24.1275 42.4056 24.1261C43.4567 23.9458 44.465 23.6786 45.4236 23.337C45.4373 23.3315 45.451 23.3261 45.4647 23.3207C45.9304 23.1539 46.3823 22.9695 46.8223 22.7688C46.8616 22.7512 46.901 22.7308 46.9404 22.7119C47.3478 22.5207 47.7433 22.3173 48.1267 22.099C48.1935 22.061 48.2568 22.0217 48.3219 21.9824C48.6711 21.7763 49.0083 21.5607 49.3336 21.3329C49.4175 21.2746 49.4979 21.2149 49.5801 21.1553C49.8814 20.9356 50.169 20.7064 50.448 20.4692C50.496 20.4285 50.549 20.3946 50.5953 20.3525L54.1851 27.9376L52.9525 28.1356C48.9467 28.7797 46.3515 31.8847 47.18 35.1132L59.7247 75.2936C60.1185 76.8312 61.2449 78.1532 62.8952 79.021C64.1243 79.6651 65.5332 80 66.9729 80C67.4676 80 67.9675 79.9607 68.4639 79.8807L74.0669 78.9803C76.0082 78.6685 77.6773 77.7763 78.7729 76.4692C79.8651 75.1634 80.2502 73.5959 79.8394 72.0041ZM11.3725 46.5302L24.5027 49.6502L22.7891 55.3288L9.75481 51.8875L11.3725 46.5302ZM16.9276 74.7566C16.4894 76.4651 14.3769 77.5824 12.2251 77.2231L6.62035 76.3227C5.57781 76.1559 4.67736 75.6759 4.08847 74.9722C3.49958 74.2685 3.29244 73.4251 3.49102 72.6441L8.95536 54.5342L21.9897 57.9756L16.9276 74.7566ZM29.0803 34.4746L25.2987 47.0088L12.1686 43.8888L15.6471 32.3607C15.8577 31.5349 16.4637 30.8231 17.3522 30.3566C18.0129 30.0108 18.7713 29.8305 19.5468 29.8305C19.8121 29.8305 20.0826 29.8522 20.348 29.8956L25.9527 30.7946C28.1079 31.1431 29.5048 32.8122 29.0803 34.4746ZM39.1479 2.71186C45.754 2.71186 51.1311 6.97085 51.1311 12.2034C51.1311 13.8251 50.6124 15.3532 49.7034 16.6902L49.5972 16.8339C49.5579 16.8895 49.5116 16.9437 49.4706 16.9993C49.2309 17.3234 48.9673 17.6312 48.6831 17.9268C48.6506 17.9607 48.6197 17.9959 48.5855 18.0298C47.9607 18.6631 47.2434 19.2258 46.4525 19.7098C46.42 19.7302 46.3857 19.7492 46.3532 19.7681C45.9646 20 45.5606 20.2156 45.1412 20.4081C45.1309 20.4122 45.1206 20.4176 45.1104 20.4231C44.2459 20.819 43.318 21.1241 42.3508 21.3397C42.2721 21.3573 42.1933 21.3722 42.1146 21.3885C41.7277 21.4685 41.334 21.5295 40.9351 21.5783C40.8238 21.5919 40.7143 21.6081 40.603 21.619C40.1237 21.6651 39.6392 21.6949 39.1479 21.6949C38.6566 21.6949 38.1721 21.6651 37.6911 21.6176C37.5798 21.6068 37.4702 21.5905 37.359 21.577C36.9618 21.5281 36.5681 21.4671 36.1812 21.3885C36.1024 21.3722 36.022 21.3573 35.9432 21.3397C34.9777 21.1241 34.0499 20.819 33.1854 20.4231C33.1751 20.4176 33.1648 20.4136 33.1546 20.4081C32.7352 20.2156 32.3312 20 31.9426 19.7681C31.91 19.7478 31.8758 19.7288 31.8433 19.7098C31.0524 19.2258 30.3351 18.6631 29.7103 18.0298C29.676 17.9959 29.6452 17.9607 29.6127 17.9268C29.3302 17.6325 29.0666 17.3234 28.8269 17.0007C27.7792 15.5905 27.1664 13.9553 27.1664 12.2047C27.1647 6.97085 32.5417 2.71186 39.1479 2.71186ZM70.0149 51.8305L56.996 55.2678L55.2293 49.6081L68.3492 46.4908L70.0149 51.8305ZM53.6339 30.7959L59.2386 29.8942C59.5056 29.8522 59.7744 29.8305 60.0397 29.8305C60.8152 29.8305 61.5736 30.0108 62.2327 30.358C63.1228 30.8244 63.7271 31.5349 63.9548 32.419L67.5258 43.8563L54.4059 46.9736L50.5182 34.5207C50.0817 32.8122 51.4786 31.1431 53.6339 30.7959ZM75.9157 74.9722C75.3269 75.6773 74.4298 76.1559 73.3839 76.3227L67.7792 77.2231C66.7332 77.3898 65.6735 77.2271 64.7851 76.7607C63.8949 76.2942 63.2906 75.5837 63.0629 74.6997L57.8194 57.9064L70.8383 54.4692L76.4978 72.598C76.7118 73.4251 76.5046 74.2685 75.9157 74.9722Z" fill="black"/>
<path id="Vector_2" d="M38.9202 18.983C43.6399 18.983 47.4796 15.9417 47.4796 12.2034C47.4796 8.46506 43.6399 5.42371 38.9202 5.42371C34.2005 5.42371 30.3608 8.46506 30.3608 12.2034C30.3608 15.9417 34.2005 18.983 38.9202 18.983ZM38.9202 8.13557C41.7517 8.13557 44.0559 9.96066 44.0559 12.2034C44.0559 14.4461 41.7517 16.2712 38.9202 16.2712C36.0887 16.2712 33.7845 14.4461 33.7845 12.2034C33.7845 9.96066 36.0887 8.13557 38.9202 8.13557Z" fill="black"/>
</g>
</g>
</svg>
